<svg xmlns="http://www.w3.org/2000/svg">
<path d="M100.017,28.524l32.635,-0c0.012,-0 0.023,-0 0.034,-0c9.7,-0 17.684,7.978 17.69,17.678c0,0 0,0 0,0c0,9.705 -7.985,17.69 -17.69,17.69c-0.011,0 -0.022,0 -0.034,0l-32.635,0c-9.7,-0.006 -17.678,-7.989 -17.678,-17.69c-0,-9.698 7.98,-17.678 17.678,-17.678Z" fill="none" fill-rule="nonzero" stroke="#ba9cdb" stroke-width="3.39px"/>
<path d="M100.017,161.108l32.635,-0c9.7,0.006 17.679,7.989 17.679,17.69c-0,9.698 -7.981,17.678 -17.679,17.678l-32.635,0c-9.698,0 -17.678,-7.98 -17.678,-17.678c-0,-9.701 7.978,-17.684 17.678,-17.69Z" fill="none" fill-rule="nonzero" stroke="#5ec2ee" stroke-width="3.39px"/>
<path d="M99.43,196.476c-31.478,-0.062 -57.362,-25.941 -57.43,-57.419l0,-53.092c0.08,-31.469 25.961,-57.334 57.43,-57.396c9.698,0 17.679,7.98 17.679,17.679c-0,9.698 -7.981,17.678 -17.679,17.678c-0.004,0 -0.008,0 -0.011,0c-12.13,0 -22.112,9.978 -22.118,22.107l-0,53.024c0.012,12.113 9.972,22.077 22.084,22.096c9.532,0.241 17.243,8.148 17.243,17.684c-0,9.536 -7.711,17.443 -17.243,17.684l0.045,-0.045Z" fill="none" fill-rule="nonzero" stroke="#ff9a1b" stroke-width="3.39px"/>
<path d="M78.555,99.238l37.277,0c0.023,0 0.045,0 0.068,0c7.26,0 13.238,5.968 13.25,13.228c0.001,0.023 0.001,0.045 0.001,0.068c-0,7.269 -5.982,13.25 -13.251,13.25l-37.345,0c-7.276,0 -13.262,-5.986 -13.262,-13.261l-0,-0.034c-0,-7.269 5.981,-13.251 13.25,-13.251c0.004,0 0.008,0 0.012,0Z" fill="none" fill-rule="nonzero" stroke="#ff4cab" stroke-width="3.39px"/>
</svg>