<svg xmlns="http://www.w3.org/2000/svg">

<path class="blue" d="M21.911, 3.439c9.907,0 17.826,7.908 17.826,15.815l-0,134.493c-0,11.884 -7.908,19.802 -17.815,19.802c-9.906,0 -17.825,-8.02 -17.825,-19.802l-0,-134.425c-0.079,-7.907 7.941,-15.883 17.814,-15.883Z" fill="none" fill-rule="nonzero" stroke="#5ec2ee" stroke-width="3.39px"/>
<path class="pink" d="M39.827, 21.344c-0,-9.882 -8.023,-17.905 -17.905,-17.905l-0.011,0c-9.882,0 -17.905,8.023 -17.905,17.905l0,25.552c0,9.882 8.023,17.905 17.905,17.905l0.011,-0c9.882,-0 17.905,-8.023 17.905,-17.905l-0,-25.552Z" fill="none" stroke="#ff4cab" stroke-width="3.61px"/>
<path class="orange" d="M102.148, 173.504c-4.741,-0.003 -9.289,-1.899 -12.629,-5.264l-31.324,-31.37c-24.391,-24.463 -24.391,-64.641 -0,-89.104l37.56,-37.718c3.361,-3.374 7.933,-5.273 12.696,-5.273c9.833,0 17.925,8.091 17.925,17.924c-0,4.741 -1.881,9.294 -5.228,12.652l-37.65,37.741c-10.558,10.56 -10.558,27.937 0,38.497l31.347,31.483c3.385,3.347 5.292,7.915 5.292,12.675c-0,9.779 -8.047,17.825 -17.826,17.825c-0.046,0 -0.093,0 -0.14,-0l-0.023,-0.068Z" fill="none" fill-rule="nonzero" stroke="#ff9a1b" stroke-width="3.39px"/>
<path class="violet" d="M39.737, 134.001c-0,-9.882 -8.023,-17.904 -17.905,-17.904l-0.011,-0c-9.882,-0 -17.905,8.022 -17.905,17.904l0,21.678c0,9.881 8.023,17.904 17.905,17.904l0.011,0c9.882,0 17.905,-8.023 17.905,-17.904l-0,-21.678Z" fill="none" stroke="#ba9cdb" stroke-width="3.39px"/>

</svg>