<svg xmlns="http://www.w3.org/2000/svg">

<path class="blue" d="M47.297, 168.901c-2.024,0.013 -4.035,-0.327 -5.942,-1.006c-22.904,-8.13 -38.31,-29.918 -38.339,-54.222l-0,-39.751c-0.004,-0.149 -0.006,-0.298 -0.006,-0.447c0,-9.704 7.986,-17.69 17.69,-17.69c9.704,0 17.69,7.986 17.69,17.69c-0,0.149 -0.002,0.298 -0.006,0.447l0,39.819c0.035,9.37 6.002,17.752 14.843,20.853c7.055,2.486 11.803,9.193 11.803,16.673c-0,9.698 -7.981,17.679 -17.679,17.679c-0.018,-0 -0.036,-0 -0.054,-0l-0,-0.045Z" fill="none" fill-rule="nonzero" stroke="#5ec2ee" stroke-width="3.39px"/>
<path class="orange" d="M60.434, 171.16c-6.498,-0.001 -12.95,-1.105 -19.079,-3.265c-6.885,-2.589 -11.471,-9.212 -11.471,-16.568c-0,-9.711 7.991,-17.702 17.701,-17.702c1.918,0 3.824,0.312 5.642,0.924c2.34,0.827 4.805,1.248 7.286,1.242c0.016,0 0.031,0 0.046,0c12.104,0 22.07,-9.946 22.095,-22.05l0,-18.198c-0.006,-0.188 -0.009,-0.377 -0.009,-0.565c0,-9.7 7.982,-17.682 17.682,-17.682c9.487,0 17.37,7.635 17.673,17.117l0,19.283c0,31.499 -25.92,57.419 -57.419,57.419l-0.147,0.045Z" fill="none" fill-rule="nonzero" stroke="#ff9a1b" stroke-width="3.39px"/>
<path class="violet" d="M100.254, 111.267l-0,0c-9.686,0 -17.656,-7.97 -17.656,-17.656c-0,-0.004 -0,-0.007 -0,-0.011l-0,-32.929c0.015,-6.681 -3.015,-13.019 -8.224,-17.204c-4.3,-3.349 -6.819,-8.505 -6.819,-13.955c0,-9.704 7.986,-17.69 17.69,-17.69c4.158,0 8.186,1.466 11.371,4.139c13.526,10.891 21.381,27.368 21.328,44.733l-0,32.883c-0,9.705 -7.986,17.69 -17.69,17.69Z" fill="none" fill-rule="nonzero" stroke="#ba9cdb" stroke-width="3.39px"/>
<path class="pink" d="M20.717, 91.601c-9.698,-0 -17.679,-7.981 -17.679,-17.679l0,-13.251c0,-31.499 25.92,-57.418 57.419,-57.418l0.102,-0c13.12,0.026 25.842,4.548 36.035,12.81c4.23,3.353 6.7,8.464 6.7,13.862c0,9.705 -7.985,17.69 -17.69,17.69c-4.12,0 -8.114,-1.44 -11.287,-4.069c-3.924,-3.165 -8.818,-4.892 -13.86,-4.891c-12.129,0 -22.116,9.967 -22.141,22.096l0,13.205c-0.006,9.66 -7.939,17.614 -17.599,17.645Z" fill="none" fill-rule="nonzero" stroke="#ff4cab" stroke-width="3.39px"/>
</svg>