<svg xmlns="http://www.w3.org/2000/svg">

<path d="M382.762,45.344c0,-9.882 -8.023,-17.905 -17.904,-17.905l-0.012,0c-9.882,0 -17.904,8.023 -17.904,17.905l-0,134.335c-0,9.881 8.022,17.904 17.904,17.904l0.012,0c9.881,0 17.904,-8.023 17.904,-17.904l0,-134.335Z" fill="none" stroke="#5ec2ee" stroke-width="3.39px"/>
<path d="M407.331,136.403l-15.622,-0c-9.656,-0.243 -17.466,-8.252 -17.466,-17.91c-0,-9.659 7.81,-17.668 17.466,-17.911l15.622,0c0.517,0.044 1.036,0.065 1.554,0.065c10.244,0 18.673,-8.429 18.673,-18.672c0,-10.244 -8.429,-18.673 -18.673,-18.673c-0.111,-0 -0.222,0.001 -0.334,0.003l-43.705,-0c-0.15,0.004 -0.3,0.006 -0.45,0.006c-9.828,-0 -17.915,-8.088 -17.915,-17.916c-0,-9.829 8.087,-17.916 17.915,-17.916c0.15,-0 0.3,0.002 0.45,0.006l42.485,-0c0.693,-0.027 1.386,-0.04 2.079,-0.04c29.894,-0 54.493,24.599 54.493,54.493c-0,29.11 -23.326,53.343 -52.415,54.454l-4.157,-0l0,0.011Z" fill="none" fill-rule="nonzero" stroke="#ff9a1b" stroke-width="3.39px"/>
<path d="M445.456,197.504c-5.157,0.013 -10.074,-2.214 -13.465,-6.1l-53.725,-61.101c-2.871,-3.268 -4.456,-7.472 -4.456,-11.822c0,-9.825 8.085,-17.909 17.91,-17.909c5.149,-0 10.055,2.22 13.454,6.088l53.725,61.124c2.848,3.263 4.419,7.45 4.419,11.782c-0,9.808 -8.054,17.886 -17.862,17.916l0,0.022Z" fill="none" fill-rule="nonzero" stroke="#ff4cab" stroke-width="3.39px"/>
<path d="M382.762,164.587c0,-9.882 -8.023,-17.905 -17.904,-17.905l-0.012,0c-9.882,0 -17.904,8.023 -17.904,17.905l-0,15.08c-0,9.882 8.022,17.905 17.904,17.905l0.012,-0c9.881,-0 17.904,-8.023 17.904,-17.905l0,-15.08Z" fill="none" stroke="#ba9cdb" stroke-width="3.39px"/>


</svg>