<svg xmlns="http://www.w3.org/2000/svg">

<path class="orange" d="M3,108.466l0,-88.111c0,-0.007 0,-0.015 0,-0.022c0,-9.775 8.04,-17.82 17.815,-17.826c9.778,0 17.825,8.047 17.825,17.826l0,96.266c0.05,9.775 -7.949,17.86 -17.724,17.916l-0.101,-0" fill="none" fill-rule="nonzero" stroke="#ff9a1b" stroke-width="3.39px"/>
<path class="orange" d="M38.64,28.579l0,88.11c-0.006,9.775 -8.051,17.815 -17.825,17.815c-9.773,-0 -17.815,-8.042 -17.815,-17.815l0,-96.255" fill="none" fill-rule="nonzero" stroke="#ff9a1b" stroke-width="3.39px"/>

<path class="blue" d="M119.306,40.237l0,76.475c0,9.773 -8.041,17.814 -17.814,17.814c-0.003,0 -0.007,0 -0.011,0c-0.034,0 -0.068,0 -0.102,0c-9.738,0 -17.765,-7.985 -17.814,-17.724l0,-70.725" fill="none" fill-rule="nonzero" stroke="#5ec2ee" stroke-width="3.39px"/>
<path class="blue" d="M83.565,116.599l0,-96.266c0,-0.004 0,-0.008 0,-0.012c0,-9.772 8.042,-17.814 17.814,-17.814c0.004,0 0.008,0 0.012,0c0.034,-0 0.067,-0 0.101,-0c9.743,-0 17.771,7.993 17.814,17.735l0,90.528" fill="none" fill-rule="nonzero" stroke="#5ec2ee" stroke-width="3.39px"/>

<path class="pink" d="M61.21,172.504c-31.91,-0.025 -58.17,-26.254 -58.232,-58.164c0.53,-9.435 8.438,-16.91 17.887,-16.91c9.45,-0 17.358,7.475 17.888,16.91c-0.007,0.222 -0.01,0.444 -0.01,0.666c0,12.285 10.109,22.394 22.393,22.394c12.034,-0 22.026,-9.699 22.384,-21.727l-0,-1.333c0.012,-9.79 8.036,-17.854 17.825,-17.916l0,0c9.773,0 17.815,8.042 17.815,17.814c-0,0.004 -0,0.008 -0,0.011c0.025,31.852 -26.099,58.113 -57.95,58.255Z" fill="none" fill-rule="nonzero" stroke="#ff4cab" stroke-width="3.39px"/>
<path class="violet" d="M119.286,20.344c0,-9.882 -8.022,-17.905 -17.904,-17.905l-0.011,0c-9.882,0 -17.905,8.023 -17.905,17.905l0,21.677c0,9.882 8.023,17.905 17.905,17.905l0.011,-0c9.882,-0 17.904,-8.023 17.904,-17.905l0,-21.677Z" fill="none" stroke="#ba9cdb" stroke-width="3.39px"/>

</svg>